<svg width="29" height="30" viewBox="0 0 29 30" fill="none" xmlns="http://www.w3.org/2000/svg">
<path fill-rule="evenodd" clip-rule="evenodd" d="M1.40408 25H18.5858C19.3668 25 20 24.3668 20 23.5858C20 23.2107 19.851 22.851 19.5858 22.5858L18.5858 21.5858C18.2107 21.2107 18 20.702 18 20.1716L18 17.9696C18 13.5681 14.4319 10 10.0304 10C5.61873 10 2.04641 13.584 2.06086 17.9957L2.06791 20.1473C2.06969 20.692 1.84919 21.2139 1.45736 21.5924L0.428635 22.586C0.154705 22.8506 2.07459e-06 23.2151 0 23.5959C0 24.3714 0.628628 25 1.40408 25ZM12.584 27C13.2374 27 13.7129 27.6278 13.357 28.1758C12.6439 29.2738 11.4067 30 9.99996 30C8.59319 30 7.35604 29.2738 6.64294 28.1758C6.28703 27.6278 6.76251 27 7.41595 27H12.584Z" fill="#9DA6BA"/>
</svg>
