<svg width="20" height="17" viewBox="0 0 20 17" fill="none" xmlns="http://www.w3.org/2000/svg">
<path fill-rule="evenodd" clip-rule="evenodd" d="M3 0C1.34315 0 0 1.34315 0 3V13C0 14.6569 1.34315 16 3 16H6.02633C6.67123 16 7.3119 16.104 7.9237 16.3079L9.68377 16.8946C9.88904 16.963 10.111 16.963 10.3162 16.8946L12.0763 16.3079C12.6881 16.104 13.3288 16 13.9737 16H17C18.6569 16 20 14.6569 20 13V3C20 1.34315 18.6569 0 17 0H13C11.9072 0 10.9167 0.438245 10.1948 1.14858C10.0876 1.25406 9.91245 1.25406 9.80524 1.14858C9.08329 0.438245 8.09283 0 7 0H3ZM11 14.5585L11.4438 14.4105C12.2596 14.1386 13.1138 14 13.9737 14H17C17.5523 14 18 13.5523 18 13V3C18 2.44772 17.5523 2 17 2H13C11.8954 2 11 2.89543 11 4V14.5585Z" fill="black"/>
</svg>
