<svg width="60" height="46" viewBox="0 0 60 46" fill="none" xmlns="http://www.w3.org/2000/svg">
<path d="M57.2407 7.01382H56.2427V3.95689C56.2427 3.59442 56.0456 3.26452 55.7369 3.11018C47.5641 -0.976635 38.2084 -1.03478 30 2.92938C21.7916 -1.03478 12.4359 -0.97651 4.26305 3.11018C3.95436 3.26452 3.75734 3.59442 3.75734 3.95689V7.01382H2.7593C1.23781 7.01382 0 8.32918 0 9.94598V42.886C0 44.5028 1.23781 45.8182 2.7593 45.8182H57.2407C58.7622 45.8182 60 44.5028 60 42.886V9.94598C60 8.32918 58.7622 7.01382 57.2407 7.01382ZM30.8806 20.9231C30.8806 20.922 30.8806 20.9208 30.8806 20.9196V4.55704C38.4114 0.975188 46.9504 0.975188 54.4814 4.55704V7.946C54.4814 7.94725 54.4813 7.9485 54.4813 7.94962C54.4813 7.95074 54.4814 7.95211 54.4814 7.95324V38.4525C50.6962 36.7729 46.6883 35.9329 42.681 35.9329C38.6737 35.9329 34.6657 36.7729 30.8806 38.4525V20.9231ZM25.2446 3.05665C26.5582 3.45642 27.8533 3.95476 29.1194 4.55704V19.1776L27.6705 18.1511C27.3746 17.9414 26.9893 17.9414 26.6935 18.1511L25.2446 19.1776V3.05665ZM5.51859 7.95211C5.51859 7.95124 5.51871 7.95049 5.51871 7.94962C5.51871 7.94875 5.51859 7.94812 5.51859 7.94725V4.55704C11.2207 1.84498 17.5005 1.1883 23.4834 2.58314V6.68267C20.3405 5.9958 17.1337 5.83709 13.9341 6.21478C13.4507 6.2718 13.1024 6.73445 13.1561 7.24814C13.2099 7.76171 13.6448 8.13216 14.1285 8.07489C17.2645 7.70469 20.4079 7.87999 23.4832 8.59457V14.6693C21.6149 14.2619 19.7095 14.037 17.803 14.0051C17.3163 13.9954 16.9162 14.4092 16.9085 14.9259C16.9009 15.4427 17.2888 15.8682 17.775 15.8764C19.6926 15.9086 21.6092 16.1465 23.4831 16.581V18.6597C18.3885 17.5481 13.1047 17.8308 8.13111 19.4914C7.66708 19.6462 7.40924 20.1715 7.55495 20.6646C7.67319 21.0644 8.02039 21.3202 8.39483 21.3202C8.48231 21.3202 8.57119 21.3062 8.65902 21.2769C13.4623 19.6733 18.5723 19.4336 23.4831 20.5734V20.9259C23.4831 21.271 23.6618 21.5882 23.9482 21.7509C24.2345 21.9138 24.582 21.8959 24.8522 21.7045L27.1818 20.0541L29.1191 21.4266V38.4523C25.334 36.7728 21.3261 35.9328 17.3187 35.9328C13.3114 35.9328 9.3034 36.7728 5.51836 38.4523V7.95211H5.51859ZM26.3014 43.9466H2.7593C2.20896 43.9466 1.76125 43.4708 1.76125 42.886V9.94598C1.76125 9.36117 2.20896 8.88542 2.7593 8.88542H3.75734V39.8915V40.8897C3.75734 41.4065 4.15162 41.8255 4.63796 41.8255H26.3014V43.9466ZM6.72681 39.9539C13.5486 37.0923 21.0892 37.0922 27.9112 39.9539H6.72681ZM31.9374 43.9466H28.0626V41.8255H31.9374V43.9466ZM53.2732 39.9539H32.0888C38.9106 37.0923 46.4513 37.0923 53.2732 39.9539ZM58.2387 42.886C58.2387 43.4708 57.791 43.9466 57.2407 43.9466H33.6986V41.8255H55.362C55.8484 41.8255 56.2427 41.4065 56.2427 40.8897V39.8915V8.88542H57.2407C57.791 8.88542 58.2387 9.36117 58.2387 9.94598V42.886Z" fill="black"/>
<path d="M36.3941 30.6797C35.4193 30.8968 34.4432 31.1677 33.493 31.485C33.0289 31.64 32.7711 32.1653 32.9168 32.6583C33.035 33.058 33.3822 33.3138 33.7567 33.3138C33.8442 33.3138 33.933 33.2998 34.0209 33.2705C34.9165 32.9716 35.8366 32.7161 36.7553 32.5115C37.2313 32.4055 37.5363 31.9095 37.4365 31.4037C37.3368 30.8978 36.8698 30.5738 36.3941 30.6797Z" fill="black"/>
<path d="M51.6051 33.3114C51.9795 33.3114 52.3268 33.0555 52.445 32.6559C52.5907 32.1628 52.3327 31.6375 51.8688 31.4826C48.1029 30.2254 44.1981 29.7555 40.2628 30.0867C39.778 30.1274 39.4162 30.578 39.4544 31.0933C39.4927 31.6087 39.9165 31.9933 40.4018 31.9524C44.111 31.6406 47.7914 32.0832 51.3409 33.2683C51.4287 33.2976 51.5176 33.3114 51.6051 33.3114Z" fill="black"/>
<path d="M33.7567 29.3041C33.8442 29.3041 33.9331 29.2901 34.0209 29.2608C39.6862 27.3693 45.6752 27.3693 51.3404 29.2608C51.8044 29.4155 52.2987 29.1415 52.4444 28.6485C52.5902 28.1554 52.3322 27.6301 51.8683 27.4753C45.8576 25.4685 39.5036 25.4685 33.493 27.4753C33.029 27.6301 32.771 28.1554 32.9168 28.6485C33.0351 29.0481 33.3823 29.3041 33.7567 29.3041Z" fill="black"/>
<path d="M33.7567 25.3258C33.8442 25.3258 33.9331 25.3119 34.0209 25.2825C37.2711 24.1974 40.6443 23.7339 44.0482 23.9054C44.5352 23.9294 44.9466 23.5312 44.9696 23.0149C44.9926 22.4986 44.6175 22.0604 44.1316 22.0358C40.5207 21.8542 36.9414 22.3456 33.493 23.4969C33.029 23.6519 32.771 24.1772 32.9168 24.6702C33.0351 25.0702 33.3823 25.3258 33.7567 25.3258Z" fill="black"/>
<path d="M51.8691 23.4985C50.6057 23.0768 49.304 22.7391 47.9999 22.4949C47.5209 22.4052 47.0644 22.7452 46.9798 23.2542C46.8954 23.7631 47.2152 24.2485 47.6943 24.3382C48.9233 24.5683 50.1503 24.8866 51.341 25.2841C51.429 25.3134 51.5177 25.3274 51.6052 25.3274C51.9797 25.3274 52.327 25.0715 52.4451 24.6719C52.5909 24.1786 52.3331 23.6533 51.8691 23.4985Z" fill="black"/>
<path d="M33.7567 21.3226C33.8442 21.3226 33.9331 21.3086 34.0209 21.2793C39.6862 19.3879 45.6752 19.3879 51.3404 21.2793C51.8044 21.434 52.2987 21.16 52.4444 20.6671C52.5902 20.1739 52.3322 19.6487 51.8683 19.4938C45.8576 17.4871 39.5036 17.4871 33.493 19.4938C33.029 19.6487 32.771 20.1739 32.9168 20.6671C33.0351 21.0667 33.3823 21.3226 33.7567 21.3226Z" fill="black"/>
<path d="M39.2964 14.1987C37.3318 14.4305 35.3792 14.8675 33.493 15.4972C33.0289 15.652 32.7711 16.1773 32.9168 16.6704C33.035 17.0702 33.3822 17.326 33.7567 17.326C33.8442 17.326 33.933 17.312 34.0209 17.2827C35.7987 16.6892 37.6391 16.2774 39.4907 16.0588C39.9742 16.0018 40.3224 15.5391 40.2688 15.0254C40.2151 14.5117 39.7792 14.1415 39.2964 14.1987Z" fill="black"/>
<path d="M43.1376 15.8768C45.9233 15.9235 48.6833 16.3971 51.3411 17.2846C51.4289 17.3138 51.5178 17.3279 51.6053 17.3279C51.9797 17.3279 52.3269 17.072 52.4451 16.6723C52.5909 16.1792 52.3329 15.6539 51.869 15.4991C49.0492 14.5577 46.1208 14.0552 43.1655 14.0055C42.6811 13.9958 42.2787 14.4097 42.271 14.9264C42.2632 15.443 42.6513 15.8686 43.1376 15.8768Z" fill="black"/>
<path d="M45.8709 12.081C46.3542 12.1384 46.7897 11.7679 46.8434 11.2542C46.8972 10.7405 46.5488 10.2779 46.0654 10.2209C41.8088 9.7184 37.5787 10.1552 33.493 11.5192C33.0289 11.6742 32.7711 12.1995 32.9168 12.6925C33.035 13.0923 33.3822 13.348 33.7567 13.348C33.8442 13.348 33.933 13.3341 34.0209 13.3048C37.8718 12.0191 41.8587 11.6075 45.8709 12.081Z" fill="black"/>
<path d="M51.8662 11.5212C51.2301 11.3089 50.5793 11.1162 49.9321 10.9488C49.4589 10.8265 48.9832 11.1344 48.8681 11.6365C48.753 12.1386 49.0428 12.6449 49.5153 12.7672C50.1254 12.9251 50.7387 13.1066 51.3383 13.3067C51.4262 13.3361 51.515 13.35 51.6025 13.35C51.977 13.35 52.3243 13.0941 52.4424 12.6945C52.5881 12.2014 52.3303 11.6761 51.8662 11.5212Z" fill="black"/>
<path d="M33.7568 9.34284C33.8443 9.34284 33.9332 9.32887 34.021 9.29955C34.6202 9.09941 35.2333 8.91799 35.8434 8.76003C36.3159 8.63775 36.6057 8.13155 36.4906 7.62934C36.3755 7.12712 35.8991 6.81931 35.4266 6.94159C34.7793 7.10903 34.1288 7.30168 33.493 7.51392C33.029 7.66889 32.7711 8.19418 32.9168 8.68716C33.0352 9.08693 33.3824 9.34284 33.7568 9.34284Z" fill="black"/>
<path d="M39.4919 8.07573C43.5043 7.60209 47.4911 8.01384 51.342 9.29963C51.4298 9.32882 51.5187 9.34292 51.6062 9.34292C51.9806 9.34292 52.3278 9.08701 52.4461 8.68737C52.5918 8.19426 52.3338 7.66897 51.8699 7.51413C47.7841 6.14999 43.554 5.71303 39.2974 6.21574C38.814 6.27276 38.4657 6.73542 38.5194 7.24911C38.5731 7.76267 39.0083 8.133 39.4919 8.07573Z" fill="black"/>
<path d="M11.0312 30.6797C10.0564 30.8968 9.08031 31.1677 8.13005 31.485C7.66602 31.64 7.40818 32.1653 7.55389 32.6583C7.67213 33.058 8.01933 33.3138 8.39377 33.3138C8.48125 33.3138 8.57013 33.2998 8.65796 33.2705C9.55361 32.9716 10.4737 32.7161 11.3924 32.5115C11.8684 32.4055 12.1734 31.9095 12.0736 31.4037C11.9738 30.8978 11.5068 30.5738 11.0312 30.6797Z" fill="black"/>
<path d="M26.242 33.3114C26.6165 33.3114 26.9638 33.0555 27.0819 32.6559C27.2276 32.1628 26.9697 31.6375 26.5058 31.4826C22.7399 30.2254 18.8348 29.7555 14.8998 30.0867C14.415 30.1274 14.0531 30.578 14.0914 31.0933C14.1297 31.6087 14.5533 31.9933 15.0387 31.9524C18.748 31.6406 22.4283 32.0832 25.9779 33.2683C26.0657 33.2976 26.1546 33.3114 26.242 33.3114Z" fill="black"/>
<path d="M8.39382 29.3041C8.48129 29.3041 8.57018 29.2901 8.658 29.2608C14.3232 27.3693 20.3123 27.3693 25.9775 29.2608C26.4415 29.4155 26.9358 29.1415 27.0815 28.6485C27.2272 28.1554 26.9693 27.6301 26.5054 27.4753C20.4947 25.4685 14.1405 25.4685 8.1301 27.4753C7.66607 27.6301 7.4081 28.1554 7.55393 28.6485C7.67217 29.0481 8.01937 29.3041 8.39382 29.3041Z" fill="black"/>
<path d="M8.39382 25.3258C8.48129 25.3258 8.57018 25.3119 8.65801 25.2825C11.9082 24.1974 15.2816 23.7339 18.6853 23.9054C19.1735 23.9294 19.5835 23.5312 19.6067 23.0149C19.6297 22.4986 19.2545 22.0604 18.7687 22.0358C15.1574 21.8542 11.5785 22.3456 8.1301 23.4969C7.66607 23.6519 7.4081 24.1772 7.55393 24.6702C7.67217 25.0702 8.01937 25.3258 8.39382 25.3258Z" fill="black"/>
<path d="M22.3314 24.3381C23.5604 24.5682 24.7874 24.8865 25.9781 25.284C26.066 25.3133 26.1548 25.3273 26.2423 25.3273C26.6167 25.3273 26.964 25.0714 27.0822 24.6717C27.2279 24.1786 26.9699 23.6533 26.506 23.4985C25.2426 23.0768 23.9409 22.7391 22.6369 22.4949C22.1579 22.4052 21.7012 22.7452 21.6168 23.2542C21.5324 23.763 21.8523 24.2484 22.3314 24.3381Z" fill="black"/>
<path d="M13.9335 14.1987C11.9689 14.4305 10.0162 14.8675 8.13005 15.4972C7.66602 15.652 7.40817 16.1773 7.55389 16.6704C7.67213 17.0702 8.01933 17.326 8.39377 17.326C8.48125 17.326 8.57013 17.312 8.65796 17.2827C10.4358 16.6892 12.2762 16.2774 14.1278 16.0588C14.6112 16.0018 14.9595 15.5391 14.9058 15.0254C14.8523 14.5119 14.4161 14.1415 13.9335 14.1987Z" fill="black"/>
<path d="M7.55389 12.6926C7.67213 13.0924 8.01933 13.3482 8.39377 13.3482C8.48125 13.3482 8.57013 13.3342 8.65796 13.3049C12.5089 12.0191 16.4958 11.6075 20.508 12.081C20.9913 12.1384 21.4268 11.7679 21.4805 11.2542C21.5342 10.7405 21.1859 10.2779 20.7025 10.2209C16.4457 9.7184 12.2158 10.1552 8.13005 11.5193C7.66602 11.6743 7.40818 12.1996 7.55389 12.6926Z" fill="black"/>
<path d="M8.39364 9.34284C8.48111 9.34284 8.57 9.32887 8.65782 9.29955C9.257 9.09941 9.87015 8.91799 10.4803 8.76003C10.9527 8.63775 11.2425 8.13155 11.1275 7.62934C11.0124 7.12712 10.5359 6.81931 10.0634 6.94159C9.4161 7.10903 8.76561 7.30168 8.1298 7.51392C7.66589 7.66889 7.40792 8.19418 7.55364 8.68716C7.67199 9.08693 8.01919 9.34284 8.39364 9.34284Z" fill="black"/>
</svg>
